<svg xmlns="http://www.w3.org/2000/svg" viewBox="0 0 100 100">
  <!-- Background circle -->
  <circle cx="50" cy="50" r="48" fill="#3B82F6" stroke="#1E40AF" stroke-width="2"/>
  
  <!-- Sun rays (solar energy) -->
  <g fill="#FCD34D" stroke="#F59E0B" stroke-width="1.5">
    <circle cx="50" cy="35" r="8"/>
    <line x1="50" y1="20" x2="50" y2="25" stroke-linecap="round"/>
    <line x1="62" y1="23" x2="58" y2="28" stroke-linecap="round"/>
    <line x1="68" y1="35" x2="63" y2="35" stroke-linecap="round"/>
    <line x1="62" y1="47" x2="58" y2="42" stroke-linecap="round"/>
    <line x1="38" y1="47" x2="42" y2="42" stroke-linecap="round"/>
    <line x1="32" y1="35" x2="37" y2="35" stroke-linecap="round"/>
    <line x1="38" y1="23" x2="42" y2="28" stroke-linecap="round"/>
  </g>
  
  <!-- Wind turbine -->
  <g fill="#FFFFFF" stroke="#E5E7EB" stroke-width="1">
    <!-- Tower -->
    <rect x="48" y="50" width="4" height="30" rx="1"/>
    
    <!-- Blades -->
    <g transform="rotate(0 50 50)">
      <ellipse cx="50" cy="42" rx="2" ry="8" fill="#FFFFFF"/>
      <ellipse cx="57" cy="46" rx="8" ry="2" fill="#FFFFFF" transform="rotate(120 50 50)"/>
      <ellipse cx="43" cy="46" rx="8" ry="2" fill="#FFFFFF" transform="rotate(240 50 50)"/>
    </g>
    
    <!-- Hub -->
    <circle cx="50" cy="50" r="2.5" fill="#E5E7EB"/>
  </g>
  
  <!-- Lightning bolt (energy) -->
  <path d="M 72 60 L 68 70 L 72 70 L 68 80 L 76 68 L 72 68 Z" 
        fill="#FCD34D" stroke="#F59E0B" stroke-width="1" stroke-linejoin="round"/>
</svg>

